
        <svg xmlns="http://www.w3.org/2000/svg" xmlns:xlink="http://www.w3.org/1999/xlink" version="1.1" width="3146.887252461309" 
        height="718.3995524661276" viewBox="0 0 3146.887252461309 718.3995524661276">
			
			<g transform="scale(7.344362623065433) translate(10, 10)">
				<defs id="SvgjsDefs16487"></defs><g id="SvgjsG16488" featureKey="sloganFeature-0" transform="matrix(0.88615174582287,0,0,0.88615174582287,54.582157713743506,60.07569928103953)" fill="#0d7377"><path d="M13.54 10.22 c0.16 0 0.56 0.08 0.56 0.7 l0 1.58 c0 0.62 -0.4 0.68 -0.56 0.68 l-8.94 0 c-0.02 0 -0.04 6.14 -0.04 6.14 c0 0.62 -0.4 0.7 -0.56 0.7 l-1.84 0 c-0.16 0 -0.56 -0.08 -0.56 -0.7 l0.04 -7.72 c0.04 -0.18 0.12 -0.36 0.2 -0.52 c0.3 -0.48 0.8 -0.8 1.38 -0.84 z M13.64 3.5199999999999996 c0.16 0 0.56 0.06 0.56 0.7 l0 1.58 c0 0.62 -0.4 0.68 -0.56 0.68 l-11.5 0 c-0.16 0 -0.54 -0.08 -0.54 -0.7 l0 -1.54 c0 -0.64 0.38 -0.72 0.54 -0.72 l11.5 0 z M32.22 3.5199999999999996 c0.18 0 0.56 0.06 0.56 0.68 l0 9.54 c0 1.12 -0.08 2.08 -0.26 2.86 c-0.18 0.8 -0.46 1.46 -0.86 1.96 c-0.4 0.52 -0.92 0.88 -1.56 1.12 c-0.62 0.22 -1.38 0.32 -2.26 0.32 l-4.5 0 c-0.88 0 -1.64 -0.1 -2.26 -0.32 c-0.62 -0.24 -1.16 -0.6 -1.54 -1.12 c-0.4 -0.5 -0.7 -1.16 -0.88 -1.96 c-0.18 -0.78 -0.26 -1.74 -0.26 -2.86 l0 -9.54 c0 -0.62 0.4 -0.68 0.58 -0.68 l1.82 0 c0.18 0 0.56 0.06 0.56 0.68 l0 9.86 c0 0.6 0.04 1.12 0.1 1.5 c0.08 0.38 0.2 0.68 0.34 0.9 c0.16 0.2 0.34 0.34 0.6 0.44 c0.26 0.08 0.62 0.14 1.04 0.14 l4.32 0 c0.42 0 0.78 -0.06 1.04 -0.14 c0.26 -0.1 0.44 -0.24 0.6 -0.44 c0.14 -0.22 0.26 -0.52 0.32 -0.9 s0.1 -0.9 0.1 -1.5 l0 -9.86 c0 -0.62 0.38 -0.68 0.56 -0.68 l1.84 0 z M48.52 17.04 c0.18 0 0.56 0.08 0.56 0.7 l0 1.58 c0 0.62 -0.38 0.7 -0.56 0.7 l-6.6 0 c-0.88 0 -1.64 -0.12 -2.24 -0.34 c-0.64 -0.22 -1.16 -0.6 -1.56 -1.12 c-0.4 -0.5 -0.68 -1.16 -0.86 -1.96 c-0.18 -0.78 -0.28 -1.74 -0.28 -2.86 l0 -9.52 c0 -0.64 0.4 -0.7 0.58 -0.7 l1.84 0 c0.16 0 0.56 0.06 0.56 0.7 l0 9.86 c0 0.6 0.02 1.1 0.1 1.5 c0.06 0.36 0.18 0.66 0.34 0.88 c0.14 0.22 0.34 0.36 0.58 0.44 c0.28 0.1 0.62 0.14 1.04 0.14 l6.5 0 z M64.82000000000001 17.04 c0.18 0 0.56 0.08 0.56 0.7 l0 1.58 c0 0.62 -0.38 0.7 -0.56 0.7 l-6.6 0 c-0.88 0 -1.64 -0.12 -2.24 -0.34 c-0.64 -0.22 -1.16 -0.6 -1.56 -1.12 c-0.4 -0.5 -0.68 -1.16 -0.86 -1.96 c-0.18 -0.78 -0.28 -1.74 -0.28 -2.86 l0 -9.52 c0 -0.64 0.4 -0.7 0.58 -0.7 l1.84 0 c0.16 0 0.56 0.06 0.56 0.7 l0 9.86 c0 0.6 0.02 1.1 0.1 1.5 c0.06 0.36 0.18 0.66 0.34 0.88 c0.14 0.22 0.34 0.36 0.58 0.44 c0.28 0.1 0.62 0.14 1.04 0.14 l6.5 0 z M90.52000000000001 10.16 c1.04 0 1.84 0.38 2.38 1.1 c0.52 0.72 0.78 1.74 0.78 3.04 l0 1.76 c0 1.16 -0.26 2.1 -0.76 2.82 c-0.52 0.74 -1.34 1.12 -2.44 1.12 l-9.02 0 c-0.18 0 -0.58 -0.06 -0.58 -0.68 l0 -1.6 c0 -0.62 0.4 -0.68 0.58 -0.68 l8.54 0 c0.34 0 0.46 -0.14 0.54 -0.26 c0.12 -0.2 0.18 -0.48 0.18 -0.84 l0 -1.72 c0 -0.98 -0.4 -1.1 -0.7 -1.1 l-6 0 c-0.84 0 -1.76 -0.12 -2.38 -0.94 c-0.5 -0.7 -0.78 -1.82 -0.78 -3.2 l0 -1.52 c0 -1.16 0.26 -2.12 0.78 -2.84 c0.52 -0.74 1.32 -1.1 2.42 -1.1 l8.62 0 c0.16 0 0.56 0.06 0.56 0.68 l0 1.6 c0 0.62 -0.4 0.68 -0.56 0.68 l-8.14 0 c-0.34 0 -0.46 0.14 -0.54 0.26 c-0.1 0.2 -0.16 0.48 -0.16 0.84 l0 1.48 c0 0.98 0.38 1.1 0.68 1.1 l6 0 z M111.7 3.5199999999999996 c0.18 0 0.58 0.06 0.58 0.68 l0 1.56 c0 0.66 -0.4 0.72 -0.58 0.72 l-5.14 0 l0 12.84 c0 0.62 -0.38 0.68 -0.56 0.68 l-1.84 0 c-0.16 0 -0.56 -0.06 -0.56 -0.68 l0 -12.84 l-5.14 0 c-0.18 0 -0.58 -0.06 -0.58 -0.72 l0 -1.56 c0 -0.62 0.4 -0.68 0.58 -0.68 l13.24 0 z M124.4 5.380000000000001 l5.62 13.86 c0.08 0.18 0.1 0.36 0.06 0.48 c-0.04 0.1 -0.12 0.3 -0.44 0.3 l-2.14 0 c-0.28 0 -0.48 -0.16 -0.58 -0.44 l-4.96 -12.38 l-0.02 -0.04 l-0.08 0 s-0.02 0.02 -0.04 0.06 l-2.56 6.48 l2.48 0 c0.26 0 0.48 0.16 0.58 0.4 l0.72 1.78 c0.06 0.2 0.04 0.42 -0.08 0.58 c-0.1 0.18 -0.3 0.28 -0.52 0.28 l-4.38 0 l-1.14 2.86 c-0.1 0.26 -0.3 0.42 -0.56 0.42 l-2.2 0 c-0.32 0 -0.42 -0.18 -0.44 -0.3 c-0.04 -0.12 -0.02 -0.3 0.04 -0.48 l5.58 -13.86 c0.28 -0.72 0.58 -1.2 0.88 -1.46 c0.08 -0.06 0.18 -0.14 0.3 -0.2 c0.4 -0.28 0.88 -0.42 1.38 -0.42 c1.1 0 2.06 0.74 2.38 1.78 z M146.54 3.5199999999999996 c0.16 0 0.56 0.08 0.56 0.7 l0 1.54 c0 0.64 -0.4 0.72 -0.56 0.72 l-7.18 0 c-0.42 0 -0.78 0.04 -1.04 0.14 c-0.26 0.08 -0.44 0.22 -0.6 0.44 s-0.26 0.5 -0.34 0.88 c-0.06 0.38 -0.1 0.88 -0.1 1.48 l0 4.66 c0 0.6 0.04 1.1 0.1 1.5 c0.08 0.38 0.18 0.68 0.34 0.88 c0.16 0.22 0.34 0.36 0.6 0.44 c0.26 0.1 0.62 0.14 1.04 0.14 l7.18 0 c0.16 0 0.56 0.08 0.56 0.7 l0 1.58 c0 0.62 -0.4 0.7 -0.56 0.7 l-7.28 0 c-0.88 0 -1.64 -0.12 -2.26 -0.34 s-1.14 -0.6 -1.54 -1.1 c-0.4 -0.52 -0.7 -1.18 -0.88 -1.96 c-0.18 -0.8 -0.26 -1.76 -0.26 -2.88 l0 -3.96 c0 -1.1 0.08 -2.06 0.26 -2.84 c0.18 -0.8 0.48 -1.46 0.88 -1.96 c0.38 -0.5 0.9 -0.88 1.54 -1.12 c0.62 -0.22 1.38 -0.34 2.26 -0.34 l7.28 0 z M160.88 13.14 l3.46 6 c0.08 0.1 0.1 0.26 0.08 0.46 c-0.02 0.26 -0.18 0.42 -0.46 0.42 l-2.16 0 c-0.2 0 -0.34 -0.04 -0.42 -0.12 c-0.08 -0.06 -0.16 -0.16 -0.22 -0.28 l-3.12 -5.48 c-0.22 -0.4 -0.44 -0.66 -0.66 -0.78 c-0.24 -0.14 -0.6 -0.2 -1.08 -0.2 l-2.02 0 l0 6.16 c0 0.62 -0.4 0.7 -0.56 0.7 l-1.84 0 c-0.16 0 -0.58 -0.08 -0.58 -0.7 l0 -15.1 c0 -0.64 0.42 -0.7 0.58 -0.7 l1.84 0 c0.16 0 0.56 0.06 0.56 0.7 l0 5.98 l1.84 0 c0.26 0 0.48 -0.02 0.64 -0.04 s0.3 -0.06 0.42 -0.12 c0.1 -0.06 0.22 -0.16 0.32 -0.28 c0.1 -0.14 0.22 -0.3 0.34 -0.5 l3.02 -5.34 c0.06 -0.14 0.14 -0.22 0.22 -0.28 c0.08 -0.08 0.22 -0.12 0.44 -0.12 l1.98 0 c0.24 0 0.4 0.12 0.46 0.34 c0.02 0.18 0 0.34 -0.06 0.48 l-3.3 5.8 l-0.54 0.9 l-0.38 0.52 c0.4 0.38 0.8 0.92 1.2 1.58 z M193.57999999999998 7.24 c0.2 0.84 0.3 1.84 0.3 2.96 l0 3.14 c0 1.12 -0.1 2.12 -0.3 2.96 s-0.54 1.54 -0.96 2.08 c-0.44 0.56 -1.02 0.98 -1.7 1.24 c-0.66 0.26 -1.48 0.4 -2.42 0.4 l-6.84 0 c-0.62 0 -1.2 -0.32 -1.52 -0.86 c-0.1 -0.18 -0.18 -0.4 -0.22 -0.62 l0.02 -13.66 c0.04 -0.16 0.12 -0.34 0.2 -0.5 c0.3 -0.48 0.8 -0.8 1.38 -0.84 l0 -0.02 l6.98 0 c0.94 0 1.74 0.14 2.42 0.4 s1.26 0.68 1.7 1.22 c0.42 0.56 0.76 1.26 0.96 2.1 z M182.85999999999999 16.94 c0 0.08 0.02 0.1 0.02 0.1 l5.56 0 c0.46 0 0.86 -0.04 1.18 -0.16 s0.56 -0.3 0.74 -0.54 c0.2 -0.26 0.34 -0.6 0.42 -1.04 s0.14 -1 0.14 -1.66 l0 -3.74 c0 -0.66 -0.06 -1.22 -0.14 -1.68 c-0.08 -0.42 -0.22 -0.76 -0.42 -1.02 c-0.18 -0.26 -0.42 -0.42 -0.74 -0.54 s-0.72 -0.18 -1.18 -0.18 l-5.54 0 c-0.02 0 -0.04 0.04 -0.04 0.12 l0 10.34 z M210.1 16.42 c0.18 0 0.58 0.06 0.58 0.68 l0 2.2 c0 0.62 -0.4 0.68 -0.58 0.68 l-7.1 0 c-0.88 0 -1.62 -0.1 -2.24 -0.34 c-0.64 -0.22 -1.16 -0.58 -1.56 -1.1 c-0.38 -0.5 -0.68 -1.16 -0.86 -1.96 c-0.14 -0.66 -0.24 -1.46 -0.26 -2.4 l0 -0.1 l0.04 -2.52 c0.04 -0.18 0.12 -0.34 0.22 -0.5 c0.28 -0.5 0.78 -0.8 1.36 -0.84 l10.32 -0.02 c0.16 0 0.56 0.06 0.56 0.68 l0 1.58 c0 0.62 -0.4 0.7 -0.56 0.7 l-8.94 0 c-0.02 0 -0.04 1.44 -0.04 1.44 l0.04 0.34 c0.06 0.38 0.18 0.68 0.34 0.9 c0.16 0.2 0.34 0.34 0.6 0.44 c0.28 0.08 0.62 0.14 1.04 0.14 l7.04 0 z M210.12 3.4800000000000004 c0.16 0 0.56 0.08 0.56 0.7 l0 1.58 c0 0.62 -0.4 0.7 -0.56 0.7 l-11.5 -0.02 c-0.16 0 -0.54 -0.06 -0.54 -0.68 l0 -1.56 c0 -0.64 0.38 -0.72 0.54 -0.72 l11.5 0 z M230.82 3.3000000000000007 c0.3 0 0.4 0.18 0.44 0.28 c0.04 0.14 0.02 0.3 -0.06 0.5 l-5.56 13.84 c-0.3 0.72 -0.58 1.2 -0.88 1.46 c-0.08 0.08 -0.18 0.14 -0.3 0.2 c-0.4 0.28 -0.88 0.44 -1.38 0.44 c-1.1 0 -2.08 -0.74 -2.38 -1.8 l-0.14 -0.3 l-5.6 -13.84 c-0.08 -0.2 -0.1 -0.36 -0.06 -0.5 c0.02 -0.08 0.12 -0.28 0.42 -0.28 l2.16 0 c0.28 0 0.48 0.14 0.56 0.42 l4.98 12.38 c0.02 0.04 0.02 0.06 0.02 0.06 l0.08 -0.02 s0.02 0 0.02 -0.04 l4.9 -12.38 c0.12 -0.28 0.32 -0.42 0.58 -0.42 l2.2 0 z M247.5 16.42 c0.18 0 0.58 0.06 0.58 0.68 l0 2.2 c0 0.62 -0.4 0.68 -0.58 0.68 l-7.1 0 c-0.88 0 -1.62 -0.1 -2.24 -0.34 c-0.64 -0.22 -1.16 -0.58 -1.56 -1.1 c-0.38 -0.5 -0.68 -1.16 -0.86 -1.96 c-0.14 -0.66 -0.24 -1.46 -0.26 -2.4 l0 -0.1 l0.04 -2.52 c0.04 -0.18 0.12 -0.34 0.22 -0.5 c0.28 -0.5 0.78 -0.8 1.36 -0.84 l10.32 -0.02 c0.16 0 0.56 0.06 0.56 0.68 l0 1.58 c0 0.62 -0.4 0.7 -0.56 0.7 l-8.94 0 c-0.02 0 -0.04 1.44 -0.04 1.44 l0.04 0.34 c0.06 0.38 0.18 0.68 0.34 0.9 c0.16 0.2 0.34 0.34 0.6 0.44 c0.28 0.08 0.62 0.14 1.04 0.14 l7.04 0 z M247.51999999999998 3.4800000000000004 c0.16 0 0.56 0.08 0.56 0.7 l0 1.58 c0 0.62 -0.4 0.7 -0.56 0.7 l-11.5 -0.02 c-0.16 0 -0.54 -0.06 -0.54 -0.68 l0 -1.56 c0 -0.64 0.38 -0.72 0.54 -0.72 l11.5 0 z M263.82 17.04 c0.18 0 0.56 0.08 0.56 0.7 l0 1.58 c0 0.62 -0.38 0.7 -0.56 0.7 l-6.6 0 c-0.88 0 -1.64 -0.12 -2.24 -0.34 c-0.64 -0.22 -1.16 -0.6 -1.56 -1.12 c-0.4 -0.5 -0.68 -1.16 -0.86 -1.96 c-0.18 -0.78 -0.28 -1.74 -0.28 -2.86 l0 -9.52 c0 -0.64 0.4 -0.7 0.58 -0.7 l1.84 0 c0.16 0 0.56 0.06 0.56 0.7 l0 9.86 c0 0.6 0.02 1.1 0.1 1.5 c0.06 0.36 0.18 0.66 0.34 0.88 c0.14 0.22 0.34 0.36 0.58 0.44 c0.28 0.1 0.62 0.14 1.04 0.14 l6.5 0 z M282.20000000000005 4.98 c0.4 0.5 0.68 1.16 0.86 1.96 c0.16 0.78 0.26 1.74 0.26 2.84 l0 3.96 c0 1.12 -0.1 2.08 -0.26 2.86 c-0.18 0.8 -0.46 1.46 -0.86 1.98 c-0.4 0.5 -0.92 0.88 -1.56 1.1 c-0.62 0.22 -1.38 0.34 -2.26 0.34 l-4.88 0 c-0.88 0 -1.64 -0.12 -2.24 -0.34 c-0.64 -0.22 -1.16 -0.6 -1.56 -1.12 c-0.38 -0.5 -0.68 -1.16 -0.86 -1.96 c-0.18 -0.78 -0.26 -1.74 -0.26 -2.86 l0 -3.96 c0 -1.12 0.08 -2.06 0.26 -2.84 c0.18 -0.8 0.48 -1.46 0.86 -1.96 c0.4 -0.5 0.92 -0.88 1.56 -1.12 c0.62 -0.22 1.36 -0.34 2.24 -0.34 l4.88 0 c0.88 0 1.64 0.12 2.26 0.34 c0.64 0.24 1.16 0.62 1.56 1.12 z M280.34000000000003 9.44 c0 -0.58 -0.02 -1.08 -0.1 -1.48 c-0.06 -0.38 -0.18 -0.68 -0.34 -0.9 c-0.14 -0.2 -0.34 -0.34 -0.6 -0.44 c-0.26 -0.08 -0.6 -0.14 -1.02 -0.14 l-4.68 0 c-0.42 0 -0.76 0.06 -1.02 0.14 c-0.26 0.1 -0.46 0.24 -0.6 0.44 c-0.16 0.22 -0.26 0.52 -0.34 0.9 c-0.06 0.4 -0.1 0.9 -0.1 1.48 l0 4.66 c0 0.58 0.04 1.08 0.1 1.48 c0.08 0.36 0.18 0.68 0.34 0.88 c0.14 0.22 0.34 0.36 0.6 0.44 c0.26 0.1 0.6 0.14 1.02 0.14 l4.68 0 c0.42 0 0.76 -0.04 1.02 -0.14 c0.26 -0.08 0.46 -0.22 0.6 -0.44 c0.16 -0.2 0.28 -0.52 0.34 -0.88 c0.08 -0.4 0.1 -0.9 0.1 -1.48 l0 -4.66 z M297.32 3.5199999999999996 c1.36 0 2.34 0.42 2.94 1.28 c0.58 0.8 0.86 1.96 0.88 3.5 c0 1.58 -0.28 2.78 -0.88 3.62 s-1.58 1.26 -2.94 1.26 l-6.84 0.02 l0 6.12 c0 0.62 -0.4 0.7 -0.56 0.7 l-1.84 0 c-0.16 0 -0.56 -0.08 -0.56 -0.7 l0 -8.4 c0 -0.62 0.4 -0.68 0.56 -0.68 l8.72 0 c0.5 0 0.86 -0.14 1.06 -0.44 c0.22 -0.3 0.32 -0.78 0.32 -1.44 s-0.1 -1.14 -0.32 -1.44 c-0.2 -0.3 -0.56 -0.44 -1.06 -0.44 l-8.72 0 c-0.16 0 -0.56 -0.06 -0.56 -0.68 l0 -1.58 c0 -0.64 0.4 -0.7 0.56 -0.7 l9.24 0 z M317.36 16.42 c0.18 0 0.58 0.06 0.58 0.68 l0 2.2 c0 0.62 -0.4 0.68 -0.58 0.68 l-7.1 0 c-0.88 0 -1.62 -0.1 -2.24 -0.34 c-0.64 -0.22 -1.16 -0.58 -1.56 -1.1 c-0.38 -0.5 -0.68 -1.16 -0.86 -1.96 c-0.14 -0.66 -0.24 -1.46 -0.26 -2.4 l0 -0.1 l0.04 -2.52 c0.04 -0.18 0.12 -0.34 0.22 -0.5 c0.28 -0.5 0.78 -0.8 1.36 -0.84 l10.32 -0.02 c0.16 0 0.56 0.06 0.56 0.68 l0 1.58 c0 0.62 -0.4 0.7 -0.56 0.7 l-8.94 0 c-0.02 0 -0.04 1.44 -0.04 1.44 l0.04 0.34 c0.06 0.38 0.18 0.68 0.34 0.9 c0.16 0.2 0.34 0.34 0.6 0.44 c0.28 0.08 0.62 0.14 1.04 0.14 l7.04 0 z M317.38 3.4800000000000004 c0.16 0 0.56 0.08 0.56 0.7 l0 1.58 c0 0.62 -0.4 0.7 -0.56 0.7 l-11.5 -0.02 c-0.16 0 -0.54 -0.06 -0.54 -0.68 l0 -1.56 c0 -0.64 0.38 -0.72 0.54 -0.72 l11.5 0 z M336.16 19.14 c0.08 0.12 0.1 0.28 0.08 0.48 c-0.04 0.24 -0.22 0.4 -0.46 0.4 l-2.2 0 c-0.18 0 -0.32 -0.04 -0.42 -0.12 c-0.08 -0.06 -0.14 -0.16 -0.22 -0.28 l-3.62 -6.42 l-4.22 0 l0 6.12 c0 0.62 -0.38 0.7 -0.56 0.7 l-1.82 0 c-0.18 0 -0.58 -0.08 -0.58 -0.7 l0 -8.4 c0 -0.62 0.4 -0.68 0.58 -0.68 l8.7 0 c0.52 0 0.86 -0.14 1.06 -0.44 c0.22 -0.3 0.32 -0.78 0.32 -1.44 s-0.1 -1.14 -0.32 -1.44 c-0.2 -0.3 -0.54 -0.44 -1.06 -0.44 l-8.7 0 c-0.18 0 -0.58 -0.06 -0.58 -0.68 l0 -1.58 c0 -0.64 0.4 -0.7 0.58 -0.7 l9.22 0 c1.36 0 2.36 0.42 2.96 1.28 c0.54 0.82 0.84 1.98 0.88 3.5 l0 0.12 c-0.04 1.54 -0.34 2.7 -0.88 3.5 c-0.5 0.68 -1.26 1.1 -2.24 1.22 z"></path></g><g id="SvgjsG16489" featureKey="nameLeftFeature-0" transform="matrix(0.88615174582287,0,0,0.88615174582287,-2.8356845725129918,6.151398562079073)" fill="#0d7377"><path d="M31.24 38.28 c0.16 0.24 0.2 0.56 0.16 0.96 c-0.08 0.48 -0.44 0.8 -0.92 0.8 l-4.4 0 c-0.36 0 -0.64 -0.08 -0.84 -0.24 c-0.16 -0.12 -0.28 -0.32 -0.44 -0.56 l-7.24 -12.84 l-8.44 0 l0 12.24 c0 1.24 -0.76 1.4 -1.12 1.4 l-3.64 0 c-0.36 0 -1.16 -0.16 -1.16 -1.4 l0 -16.8 c0 -1.24 0.8 -1.36 1.16 -1.36 l17.4 0 c1.04 0 1.72 -0.28 2.12 -0.88 c0.44 -0.6 0.64 -1.56 0.64 -2.88 s-0.2 -2.28 -0.64 -2.88 c-0.4 -0.6 -1.08 -0.88 -2.12 -0.88 l-17.4 0 c-0.36 0 -1.16 -0.12 -1.16 -1.36 l0 -3.16 c0 -1.28 0.8 -1.4 1.16 -1.4 l18.44 0 c2.72 0 4.72 0.84 5.92 2.56 c1.08 1.64 1.68 3.96 1.76 7 l0 0.24 c-0.08 3.08 -0.68 5.4 -1.76 7 c-1 1.36 -2.52 2.2 -4.48 2.44 z M70.56899999999999 7.039999999999999 c0.32 0 0.6 0.2 0.72 0.52 c0.08 0.32 0.04 0.64 -0.12 0.92 l-12.12 21.4 l0 8.76 c0 1.24 -0.8 1.36 -1.12 1.36 l-3.68 0 c-0.32 0 -1.12 -0.12 -1.12 -1.36 l0 -8.76 l-12 -21.4 c-0.16 -0.28 -0.2 -0.6 -0.12 -0.88 c0.08 -0.36 0.36 -0.56 0.72 -0.56 l4.56 0 c0.36 0 0.84 0.12 1.16 0.76 l8.72 16 l8.8 -16.04 c0.32 -0.6 0.8 -0.72 1.16 -0.72 l4.44 0 z M96.698 10.760000000000002 l11.24 27.72 c0.16 0.36 0.2 0.72 0.12 0.96 c-0.08 0.2 -0.24 0.6 -0.88 0.6 l-4.28 0 c-0.56 0 -0.96 -0.32 -1.16 -0.88 l-9.92 -24.76 l-0.04 -0.08 l-0.16 0 s-0.04 0.04 -0.08 0.12 l-5.12 12.96 l4.96 0 c0.52 0 0.96 0.32 1.16 0.8 l1.44 3.56 c0.12 0.4 0.08 0.84 -0.16 1.16 c-0.2 0.36 -0.6 0.56 -1.04 0.56 l-8.76 0 l-2.28 5.72 c-0.2 0.52 -0.6 0.84 -1.12 0.84 l-4.4 0 c-0.64 0 -0.84 -0.36 -0.88 -0.6 c-0.08 -0.24 -0.04 -0.6 0.08 -0.96 l11.16 -27.72 c0.56 -1.44 1.16 -2.4 1.76 -2.92 c0.16 -0.12 0.36 -0.28 0.6 -0.4 c0.8 -0.56 1.76 -0.84 2.76 -0.84 c2.2 0 4.12 1.48 4.76 3.56 z M145.987 7.039999999999999 c0.32 0 1.12 0.12 1.12 1.4 l0 26.44 c0 1.96 -0.28 3.28 -0.84 4 c-0.56 0.76 -1.44 1.16 -2.6 1.16 l-2.92 0 c-0.56 0 -1 -0.04 -1.36 -0.12 c-0.4 -0.08 -0.76 -0.2 -1.08 -0.44 c-0.32 -0.2 -0.6 -0.48 -0.88 -0.88 c-0.28 -0.36 -0.6 -0.84 -0.92 -1.48 l-12.68 -22.48 c-0.08 -0.12 -0.12 -0.12 -0.12 -0.12 l-0.2 0 l0 24.12 c0 1.24 -0.76 1.4 -1.12 1.4 l-3.56 0 c-0.36 0 -1.16 -0.16 -1.16 -1.4 l0 -26.44 c0 -1.96 0.28 -3.28 0.84 -4.04 c0.56 -0.72 1.44 -1.12 2.6 -1.12 l3 0 c0.52 0 1 0.04 1.4 0.08 c0.44 0.08 0.8 0.24 1.12 0.48 c0.28 0.2 0.56 0.52 0.84 0.92 c0.28 0.36 0.56 0.84 0.88 1.44 l12.64 22.48 c0.04 0.12 0.08 0.12 0.12 0.12 l0.2 0 l0 -24.12 c0 -1.28 0.76 -1.4 1.12 -1.4 l3.56 0 z"></path></g><g id="SvgjsG16490" featureKey="inlineSymbolFeature-0" transform="matrix(0.2431102182743872,0,0,0.2431102182743872,134.14271755835992,-13.85728244164007)" fill="#0d7377"><defs xmlns="http://www.w3.org/2000/svg"></defs><g xmlns="http://www.w3.org/2000/svg"><g><rect class="fil0" x="57" y="224" width="52.4036" height="52.4036" style="fill: #0d7377;"></rect><rect class="fil0" x="113" y="168" width="52.4036" height="52.4036" style="fill: #0d7377;"></rect><rect class="fil0" x="113" y="224" width="52.4036" height="52.4036" style="fill: #0d7377;"></rect><rect class="fil0" x="168" y="113" width="52.4036" height="52.4036" style="fill: #0d7377;"></rect><rect class="fil0" x="168" y="168" width="52.4036" height="52.4036" style="fill: #0d7377;"></rect><rect class="fil0" x="168" y="224" width="52.4036" height="52.4036" style="fill: #0d7377;"></rect><rect class="fil0" x="224" y="57" width="52.4036" height="52.4036" style="fill: #0d7377;"></rect><rect class="fil0" x="224" y="113" width="52.4036" height="52.4036" style="fill: #0d7377;"></rect><rect class="fil0" x="224" y="168" width="52.4036" height="52.4036" style="fill: #0d7377;"></rect><rect class="fil0" x="224" y="224" width="52.4036" height="52.4036" style="fill: #0d7377;"></rect></g></g></g><g id="SvgjsG16491" featureKey="nameRightFeature-0" transform="matrix(0.8957954917392588,0,0,0.8957954917392588,196.9129584944867,5.765263770471449)" fill="#0d7377"><path d="M46.489000000000004 7.039999999999999 c2.72 0 4.68 0.84 5.88 2.56 c1.16 1.6 1.72 3.92 1.76 7 c0 3.16 -0.56 5.56 -1.76 7.24 s-3.16 2.52 -5.88 2.52 l-13.68 0.04 l0 12.24 c0 1.24 -0.8 1.4 -1.12 1.4 l-3.68 0 c-0.32 0 -1.12 -0.16 -1.12 -1.4 l0 -16.8 c0 -1.24 0.8 -1.36 1.12 -1.36 l17.44 0 c1 0 1.72 -0.28 2.12 -0.88 c0.44 -0.6 0.64 -1.56 0.64 -2.88 s-0.2 -2.28 -0.64 -2.88 c-0.4 -0.6 -1.12 -0.88 -2.12 -0.88 l-17.44 0 c-0.32 0 -1.12 -0.12 -1.12 -1.36 l0 -3.16 c0 -1.28 0.8 -1.4 1.12 -1.4 l18.48 0 z M87.698 32.84 c0.36 0 1.16 0.12 1.16 1.36 l0 4.4 c0 1.24 -0.8 1.36 -1.16 1.36 l-14.2 0 c-1.76 0 -3.24 -0.2 -4.48 -0.68 c-1.28 -0.44 -2.32 -1.16 -3.12 -2.2 c-0.76 -1 -1.36 -2.32 -1.72 -3.92 c-0.28 -1.32 -0.48 -2.92 -0.52 -4.8 l0 -0.2 l0.08 -5.04 c0.08 -0.36 0.24 -0.68 0.44 -1 c0.56 -1 1.56 -1.6 2.72 -1.68 l20.64 -0.04 c0.32 0 1.12 0.12 1.12 1.36 l0 3.16 c0 1.24 -0.8 1.4 -1.12 1.4 l-17.88 0 c-0.04 0 -0.08 2.88 -0.08 2.88 l0.08 0.68 c0.12 0.76 0.36 1.36 0.68 1.8 c0.32 0.4 0.68 0.68 1.2 0.88 c0.56 0.16 1.24 0.28 2.08 0.28 l14.08 0 z M87.738 6.960000000000001 c0.32 0 1.12 0.16 1.12 1.4 l0 3.16 c0 1.24 -0.8 1.4 -1.12 1.4 l-23 -0.04 c-0.32 0 -1.08 -0.12 -1.08 -1.36 l0 -3.12 c0 -1.28 0.76 -1.44 1.08 -1.44 l23 0 z M126.707 7.039999999999999 c0.32 0 1.12 0.12 1.12 1.4 l0 26.44 c0 1.96 -0.28 3.28 -0.84 4 c-0.56 0.76 -1.44 1.16 -2.6 1.16 l-2.92 0 c-0.56 0 -1 -0.04 -1.36 -0.12 c-0.4 -0.08 -0.76 -0.2 -1.08 -0.44 c-0.32 -0.2 -0.6 -0.48 -0.88 -0.88 c-0.28 -0.36 -0.6 -0.84 -0.92 -1.48 l-12.68 -22.48 c-0.08 -0.12 -0.12 -0.12 -0.12 -0.12 l-0.2 0 l0 24.12 c0 1.24 -0.76 1.4 -1.12 1.4 l-3.56 0 c-0.36 0 -1.16 -0.16 -1.16 -1.4 l0 -26.44 c0 -1.96 0.28 -3.28 0.84 -4.04 c0.56 -0.72 1.44 -1.12 2.6 -1.12 l3 0 c0.52 0 1 0.04 1.4 0.08 c0.44 0.08 0.8 0.24 1.12 0.48 c0.28 0.2 0.56 0.52 0.84 0.92 c0.28 0.36 0.56 0.84 0.88 1.44 l12.64 22.48 c0.04 0.12 0.08 0.12 0.12 0.12 l0.2 0 l0 -24.12 c0 -1.28 0.76 -1.4 1.12 -1.4 l3.56 0 z M160.436 34.08 c0.36 0 1.12 0.16 1.12 1.4 l0 3.16 c0 1.24 -0.76 1.4 -1.12 1.4 l-13.2 0 c-1.76 0 -3.28 -0.24 -4.48 -0.68 c-1.28 -0.44 -2.32 -1.2 -3.12 -2.24 c-0.8 -1 -1.36 -2.32 -1.72 -3.92 c-0.36 -1.56 -0.56 -3.48 -0.56 -5.72 l0 -19.04 c0 -1.28 0.8 -1.4 1.16 -1.4 l3.68 0 c0.32 0 1.12 0.12 1.12 1.4 l0 19.72 c0 1.2 0.04 2.2 0.2 3 c0.12 0.72 0.36 1.32 0.68 1.76 c0.28 0.44 0.68 0.72 1.16 0.88 c0.56 0.2 1.24 0.28 2.08 0.28 l13 0 z M195.125 32.84 c0.36 0 1.16 0.12 1.16 1.36 l0 4.4 c0 1.24 -0.8 1.36 -1.16 1.36 l-14.2 0 c-1.76 0 -3.24 -0.2 -4.48 -0.68 c-1.28 -0.44 -2.32 -1.16 -3.12 -2.2 c-0.76 -1 -1.36 -2.32 -1.72 -3.92 c-0.28 -1.32 -0.48 -2.92 -0.52 -4.8 l0 -0.2 l0.08 -5.04 c0.08 -0.36 0.24 -0.68 0.44 -1 c0.56 -1 1.56 -1.6 2.72 -1.68 l20.64 -0.04 c0.32 0 1.12 0.12 1.12 1.36 l0 3.16 c0 1.24 -0.8 1.4 -1.12 1.4 l-17.88 0 c-0.04 0 -0.08 2.88 -0.08 2.88 l0.08 0.68 c0.12 0.76 0.36 1.36 0.68 1.8 c0.32 0.4 0.68 0.68 1.2 0.88 c0.56 0.16 1.24 0.28 2.08 0.28 l14.08 0 z M195.165 6.960000000000001 c0.32 0 1.12 0.16 1.12 1.4 l0 3.16 c0 1.24 -0.8 1.4 -1.12 1.4 l-23 -0.04 c-0.32 0 -1.08 -0.12 -1.08 -1.36 l0 -3.12 c0 -1.28 0.76 -1.44 1.08 -1.44 l23 0 z M235.414 7.039999999999999 c0.32 0 0.6 0.2 0.72 0.52 c0.08 0.32 0.04 0.64 -0.12 0.92 l-12.12 21.4 l0 8.76 c0 1.24 -0.8 1.36 -1.12 1.36 l-3.68 0 c-0.32 0 -1.12 -0.12 -1.12 -1.36 l0 -8.76 l-12 -21.4 c-0.16 -0.28 -0.2 -0.6 -0.12 -0.88 c0.08 -0.36 0.36 -0.56 0.72 -0.56 l4.56 0 c0.36 0 0.84 0.12 1.16 0.76 l8.72 16 l8.8 -16.04 c0.32 -0.6 0.8 -0.72 1.16 -0.72 l4.44 0 z"></path></g>
			</g>
		</svg>
	